<?xml version="1.0" standalone="no"?>
<!DOCTYPE svg PUBLIC "-//W3C//DTD SVG 1.1//EN" "http://www.w3.org/Graphics/SVG/1.1/DTD/svg11.dtd" >
<svg xmlns="http://www.w3.org/2000/svg" xmlns:xlink="http://www.w3.org/1999/xlink" version="1.1">
<metadata></metadata>
<defs>
<font id="futurafuturiscondboldcregular" horiz-adv-x="991" >
<font-face units-per-em="2048" ascent="1559" descent="-489" />
<missing-glyph horiz-adv-x="477" />
<glyph horiz-adv-x="0" />
<glyph horiz-adv-x="682" />
<glyph unicode=" "  horiz-adv-x="477" />
<glyph unicode="&#x09;" horiz-adv-x="477" />
<glyph unicode="&#xa0;" horiz-adv-x="477" />
<glyph unicode="!" horiz-adv-x="593" d="M129 172q0 97 50 153t118 56t118 -56t50 -153t-50 -153t-118 -56t-118 56t-50 153zM139 473v961h316v-961h-316z" />
<glyph unicode="&#x22;" horiz-adv-x="681" d="M102 1434h228l-47 -416h-133zM352 1434h228l-48 -416h-133z" />
<glyph unicode="#" horiz-adv-x="1275" d="M180 338l23 205h168l41 348h-168l22 205h168l31 256h168l-31 -256h158l31 256h167l-30 -256h168l-23 -205h-168l-41 -348h168l-22 -205h-168l-31 -256h-168l31 256h-158l-31 -256h-168l31 256h-168zM539 543h157l41 348h-157z" />
<glyph unicode="$" horiz-adv-x="800" d="M14 1042q0 170 73 283.5t202 138.5v228h182v-224q86 -14 178 -55v-326q-136 72 -207 72q-49 0 -80.5 -34.5t-31.5 -88.5q0 -34 11.5 -59t34 -41t42.5 -25t52.5 -20.5t47.5 -18.5q60 -28 103.5 -71.5t66.5 -86.5t36 -99t16 -96t3 -89q0 -64 -10.5 -124t-37.5 -128.5 t-84 -122.5t-140 -82v-211h-182v201q-72 8 -127 32.5t-131 74.5v362q185 -129 286 -129q36 0 60.5 14.5t33.5 37.5t12 38.5t3 30.5q0 33 -3.5 52t-19 43.5t-50.5 46.5t-93 48q-40 18 -71 36.5t-65.5 53t-57 77.5t-37.5 110.5t-15 150.5z" />
<glyph unicode="%" horiz-adv-x="1298" d="M43 1081q0 186 83.5 290t209.5 104t209.5 -104t83.5 -290t-83.5 -289.5t-209.5 -103.5t-209.5 103.5t-83.5 289.5zM258 -41l623 1516h157l-624 -1516h-156zM258 1081q0 -61 14.5 -98.5t30 -48t33.5 -10.5t33.5 10.5t30 48t14.5 98.5q0 41 -7 72t-16 46.5t-21 25t-19.5 12 t-14.5 2.5t-14.5 -2.5t-19.5 -12t-21 -25t-16 -46.5t-7 -72zM670 352q0 186 83.5 289.5t209.5 103.5t209 -103.5t83 -289.5t-83 -289.5t-209 -103.5t-209.5 103.5t-83.5 289.5zM885 352q0 -61 14.5 -98.5t30 -48t33.5 -10.5q13 0 24.5 6.5t24.5 22t20.5 48.5t7.5 80 q0 41 -6.5 72t-15.5 46.5t-21 25t-19.5 12t-14.5 2.5t-14.5 -2.5t-19.5 -12t-21 -25t-16 -46.5t-7 -72z" />
<glyph unicode="&#x26;" horiz-adv-x="1099" d="M72 365q0 275 233 405q-50 82 -71 142.5t-21 144.5q0 82 17.5 154t52.5 131t95 93.5t138 34.5q146 0 224.5 -110.5t78.5 -286.5q0 -115 -45 -199.5t-133 -160.5l92 -150l39 60h328l-207 -295l203 -328h-328l-66 102q-120 -139 -280 -139q-159 0 -254.5 105t-95.5 297z M369 381q0 -64 18 -104.5t57 -40.5q22 0 43.5 16t34 32.5t35.5 51.5l-131 219q-57 -52 -57 -174zM471 1067q0 -94 45 -166q10 22 26 51.5t21 41.5t10 34.5t5 52.5q0 68 -15.5 99.5t-38.5 31.5q-28 0 -40.5 -45.5t-12.5 -99.5z" />
<glyph unicode="'" horiz-adv-x="432" d="M102 1434h228l-47 -416h-133z" />
<glyph unicode="(" horiz-adv-x="479" d="M66 545q0 109 8 212t29 235.5t65.5 282.5t110.5 304l172 -158q-160 -426 -160 -876q0 -451 160 -877l-172 -157q-66 154 -110.5 304t-65.5 282.5t-29 235.5t-8 212z" />
<glyph unicode=")" horiz-adv-x="479" d="M66 -332l172 -157q66 154 110.5 304t65.5 282.5t29 235.5t8 212t-8 212t-29 235.5t-65.5 282.5t-110.5 304l-172 -158q159 -423 159 -876q0 -454 -159 -877z" />
<glyph unicode="*" horiz-adv-x="745" d="M57 920l162 141l-162 141l76 197l143 -123v229h193v-229l143 123l76 -197l-162 -141l162 -141l-76 -197l-143 123v-230h-193v230l-143 -123z" />
<glyph unicode="+" horiz-adv-x="1310" d="M102 614v205h451v451h205v-451h450v-205h-450v-450h-205v450h-451z" />
<glyph unicode="," horiz-adv-x="526" d="M29 -287l143 631h297l-203 -631h-237z" />
<glyph unicode="-" horiz-adv-x="688" d="M82 401v316h524v-316h-524z" />
<glyph unicode="." horiz-adv-x="593" d="M129 172q0 97 50 153t118 56t118 -56t50 -153t-50 -153t-118 -56t-118 56t-50 153z" />
<glyph unicode="/" horiz-adv-x="786" d="M43 -430l502 1935h198l-501 -1935h-199z" />
<glyph unicode="0" horiz-adv-x="917" d="M66 717q0 758 393 758t393 -758t-393 -758t-393 758zM367 717q0 -232 15 -323q22 -133 77 -134q22 0 39 19.5t26.5 60.5t15.5 77.5t8 97.5t2.5 91t0.5 87v24q0 232 -15 323q-21 134 -77 134q-22 0 -39 -19.5t-26.5 -60.5t-15.5 -77.5t-8 -97.5t-2.5 -91t-0.5 -87v-24z " />
<glyph unicode="1" horiz-adv-x="1083" d="M287 1104v330h452v-1434h-305v1104h-147z" />
<glyph unicode="2" horiz-adv-x="905" d="M14 0l398 692q67 117 87 176q21 63 21 119q0 187 -86 187q-29 0 -49 -26.5t-28.5 -68.5t-11 -78t-1.5 -71h-297q-3 113 13.5 203t49 147.5t71.5 97.5t86.5 60t88.5 28.5t84 8.5q170 0 274.5 -120.5t104.5 -357.5q0 -54 -5.5 -100.5t-24.5 -99.5t-36.5 -93.5t-59 -111.5 t-74 -122.5t-99.5 -154.5h287v-315h-793z" />
<glyph unicode="3" horiz-adv-x="921" d="M57 461h297q-1 -108 27 -154.5t65 -46.5q39 0 66 44.5t27 154.5q0 54 -11 89t-31.5 48t-35.5 16.5t-37 3.5h-49v246h49q35 0 62.5 34t27.5 126q0 38 -5 67t-12.5 44.5t-17 25t-16.5 12.5t-14 3q-30 0 -52.5 -37.5t-21.5 -114.5h-297q5 90 24 162.5t44 119t60.5 80.5 t66 51t68.5 26.5t60.5 11.5t49.5 2q81 0 145 -25.5t103 -65t64 -93t34.5 -104.5t9.5 -104q0 -228 -162 -290v-13q51 -20 88.5 -55.5t56.5 -72t30 -84.5t13.5 -80t2.5 -72q0 -210 -100 -333.5t-296 -123.5q-28 0 -51.5 2t-63.5 13t-72 30t-68 57t-61.5 89t-44 131.5 t-22.5 179.5z" />
<glyph unicode="4" horiz-adv-x="899" d="M29 344v289l348 801h373v-789h106v-301h-106v-344h-289v344h-432zM303 645h158v373z" />
<glyph unicode="5" horiz-adv-x="925" d="M72 94l39 316h43q101 -150 217 -150q85 0 128.5 72t43.5 182q0 45 -9 81.5t-22.5 59t-34 39t-36.5 24t-37.5 12t-31 5t-22.5 0.5q-76 0 -160 -61h-69l106 760h576v-316h-357l-20 -172q15 3 29 3.5t33 -0.5t28 -1q30 0 63.5 -7t82.5 -34.5t86.5 -72t64.5 -130t27 -198.5 q0 -86 -16.5 -165.5t-52 -149.5t-86.5 -121t-125 -81t-163 -30q-187 0 -325 135z" />
<glyph unicode="6" horiz-adv-x="913" d="M57 479q0 138 28.5 249.5t80.5 227.5l219 478h336l-238 -490q27 6 58 6q61 0 116 -28.5t100.5 -84t72 -148t26.5 -210.5q0 -105 -24.5 -197t-72.5 -165t-127 -115.5t-179 -42.5q-183 0 -289.5 141.5t-106.5 378.5zM346 475q0 -20 1.5 -41t7.5 -54.5t16.5 -58t31 -43 t48.5 -18.5q34 0 57.5 25.5t33.5 65t13.5 69t3.5 55.5q0 25 -3.5 54t-13.5 68.5t-33.5 65t-57.5 25.5q-28 0 -49.5 -21.5t-33 -55t-17 -68t-5.5 -68.5z" />
<glyph unicode="7" horiz-adv-x="903" d="M86 1104v330h817l-442 -1434h-344l362 1104h-393z" />
<glyph unicode="8" horiz-adv-x="913" d="M57 393q0 281 203 361v12q-14 6 -29 16t-40 35.5t-44 58t-33 86t-14 117.5q0 175 90 285.5t267 110.5q72 0 129.5 -19.5t94 -48t63 -70.5t39 -77t19.5 -77.5t8 -62.5t1 -41q0 -232 -158 -313v-12q203 -79 203 -361q0 -66 -10 -123.5t-37.5 -116.5t-70.5 -100.5 t-115 -67.5t-166 -26q-76 0 -138 17.5t-103 44.5t-71.5 66.5t-46.5 77.5t-26 83.5t-12.5 77.5t-2.5 67zM367 444q0 -28 4 -57t13.5 -59t28.5 -49t44 -19q27 0 46 19t28.5 49t13.5 58.5t4 57.5q0 74 -23 127.5t-69 53.5q-25 0 -44 -19t-28.5 -49t-13.5 -58.5t-4 -54.5z M387 1036q0 -60 18 -106.5t52 -46.5q36 0 53.5 51.5t17.5 101.5t-17.5 103t-53.5 53q-35 0 -52.5 -48.5t-17.5 -107.5z" />
<glyph unicode="9" horiz-adv-x="913" d="M57 913q0 105 25 197.5t73 165.5t127 115.5t179 42.5q183 0 289 -142t106 -379q0 -138 -28 -250t-80 -227l-220 -477h-335l237 490q-32 -7 -57 -7q-61 0 -116.5 28.5t-100.5 84t-72 148t-27 210.5zM354 918q0 -24 3.5 -53.5t13.5 -69t34 -65t58 -25.5q37 0 62 37.5 t33.5 83t8.5 92.5q0 27 -3 55t-12 68.5t-32 66t-57 25.5t-58 -25.5t-34 -65t-13.5 -69t-3.5 -55.5z" />
<glyph unicode=":" horiz-adv-x="593" d="M129 172q0 97 50 153t118 56t118 -56t50 -153t-50 -153t-118 -56t-118 56t-50 153zM129 817q0 97 50 153t118 56t118 -56t50 -153t-50 -153t-118 -56t-118 56t-50 153z" />
<glyph unicode=";" horiz-adv-x="526" d="M29 -287l143 631h297l-203 -631h-237zM133 817q0 97 50 153t118 56t118 -56t50 -153t-50 -153t-118 -56t-118 56t-50 153z" />
<glyph unicode="&#x3c;" horiz-adv-x="1024" d="M102 635v164l820 409v-204l-598 -287l598 -287v-205z" />
<glyph unicode="=" horiz-adv-x="1310" d="M102 430v205h1106v-205h-1106zM102 799v205h1106v-205h-1106z" />
<glyph unicode="&#x3e;" horiz-adv-x="1024" d="M102 225v205l598 287l-598 287v204l820 -409v-164z" />
<glyph unicode="?" horiz-adv-x="815" d="M57 1016q0 54 8 109.5t32 120.5t61.5 114t102.5 82t149 33q91 0 160 -36.5t109 -99t59.5 -136t19.5 -156.5q0 -98 -20 -170t-54 -111.5t-66.5 -59t-70.5 -28.5v-205h-289v309h96q22 0 40 8t37.5 31t30.5 76t11 131q0 48 -6 79.5t-16.5 44.5t-19.5 17.5t-21 4.5 q-21 0 -35.5 -18.5t-20 -47t-7 -46t-1.5 -30.5v-16h-289zM236 172q0 97 49.5 153t117.5 56t118 -56t50 -153t-50 -153t-118 -56t-117.5 56t-49.5 153z" />
<glyph unicode="@" horiz-adv-x="1798" d="M131 717q0 221 101.5 395t274 268.5t382.5 94.5q126 0 234.5 -26t186.5 -69.5t141 -103t102.5 -124.5t65.5 -136t37 -134.5t11 -123.5q0 -110 -39.5 -198t-104 -140.5t-140 -80.5t-154.5 -28q-130 0 -207 127q-52 -59 -116 -93t-126 -34q-57 0 -111 17t-102.5 52t-78 99 t-29.5 148q0 125 62 235t167 176t225 66q72 0 109 -28.5t61 -76.5l19 86h205l-115 -530q-24 -109 78 -109q36 0 71.5 8t73 30t65.5 56t46 90t18 128q0 142 -51.5 257.5t-141 190t-208 114.5t-254.5 40q-144 0 -265 -52t-200.5 -140t-123.5 -204.5t-44 -246.5 q0 -111 27 -207.5t74.5 -167.5t110.5 -126.5t136.5 -89.5t150 -51.5t154.5 -17.5q174 0 320 95l59 -91q-93 -56 -181 -79t-198 -23q-164 0 -305.5 50.5t-247 144.5t-165.5 239t-60 324zM715 651q0 -55 24 -97t84 -42q44 0 81.5 19.5t60.5 48.5t39.5 63.5t23 64.5t6.5 52 q0 16 -1.5 31t-9 38.5t-20 40t-37 29t-57.5 12.5q-49 0 -88 -25t-61 -64.5t-33.5 -83.5t-11.5 -87z" />
<glyph unicode="A" horiz-adv-x="1036" d="M-14 0l342 1434h381l342 -1434h-344l-54 248h-270l-53 -248h-344zM436 563h164l-82 393z" />
<glyph unicode="B" horiz-adv-x="1048" d="M129 0v1434h453q83 0 147.5 -22t103 -57.5t63 -85t33.5 -97.5t9 -103q0 -59 -15 -107.5t-37 -78.5t-52.5 -54t-55 -35.5t-51.5 -19.5v-10q112 -31 188 -124t76 -241q0 -81 -22 -146.5t-54 -106.5t-78.5 -70.5t-84.5 -43.5t-83.5 -22t-64.5 -9t-37 -1h-438zM455 287h75 q17 0 26 0.5t33 8t38 21.5t26.5 45.5t12.5 75.5q0 41 -11 70t-24.5 43t-35.5 21.5t-34.5 8.5t-30.5 1h-75v-295zM455 868h63q14 0 28.5 3.5t37.5 15t37 41.5t14 76q0 63 -28.5 103t-88.5 40h-63v-279z" />
<glyph unicode="C" horiz-adv-x="923" d="M66 717q0 175 40 319t109.5 239.5t164 147.5t202.5 52q163 0 270 -52v-370q-99 63 -215 63q-76 0 -131.5 -64t-80 -154.5t-24.5 -192.5q0 -70 14 -136.5t41.5 -124t74 -92.5t106.5 -35q117 0 215 33v-348q-100 -43 -266 -43q-91 0 -168.5 30.5t-133.5 84.5t-98.5 125.5 t-68.5 157.5t-38.5 175.5t-12.5 184.5z" />
<glyph unicode="D" horiz-adv-x="1097" d="M129 0v1434h340q132 0 234 -45t163 -115.5t99.5 -168t52.5 -191.5t14 -197q0 -117 -19.5 -221t-63 -196t-108 -158t-159.5 -104t-213 -38h-340zM455 344h2q18 0 34.5 2t41.5 10.5t46 23t43.5 43t38 66.5t25.5 96.5t10 131.5q0 50 -4 94t-19 97.5t-39.5 91.5t-70 64 t-106.5 26h-2v-746z" />
<glyph unicode="E" horiz-adv-x="847" d="M129 0v1434h633v-344h-307v-201h278v-316h-278v-229h307v-344h-633z" />
<glyph unicode="F" horiz-adv-x="819" d="M129 0v1434h633v-344h-307v-216h278v-329h-278v-545h-326z" />
<glyph unicode="G" horiz-adv-x="1196" d="M66 707q0 117 18 225t58.5 208t101.5 173.5t153 117.5t205 44q175 0 309 -107t181 -291l-312 -96q-12 40 -32 70t-38.5 44.5t-41 23t-34.5 10t-24 1.5q-98 0 -158.5 -110.5t-60.5 -304.5q0 -220 67.5 -330.5t159.5 -110.5q76 0 129.5 70.5t57.5 192.5h-250v294h573 q1 -57 2 -119v-16q0 -55 -6 -112q-7 -66 -16.5 -130.5t-30.5 -126t-47 -116.5t-66 -101.5t-88 -80t-112.5 -52t-140.5 -18.5q-111 0 -204 40.5t-157.5 110.5t-109 165t-65.5 204t-21 228z" />
<glyph unicode="H" horiz-adv-x="1179" d="M129 0v1434h326v-516h270v516h326v-1434h-326v573h-270v-573h-326z" />
<glyph unicode="I" horiz-adv-x="583" d="M129 0v1434h326v-1434h-326z" />
<glyph unicode="J" horiz-adv-x="681" d="M0 20v326q79 -43 141 -43q55 0 78 31t23 121v979h325v-938q0 -82 -4.5 -144.5t-16.5 -127t-35 -110t-58.5 -82t-89 -55t-123.5 -18.5q-62 0 -129.5 14.5t-110.5 46.5z" />
<glyph unicode="K" horiz-adv-x="1052" d="M129 0v1434h326v-531l235 531h367l-365 -695l375 -739h-387l-225 537v-537h-326z" />
<glyph unicode="L" horiz-adv-x="772" d="M129 0v1434h326v-1090h288v-344h-614z" />
<glyph unicode="M" horiz-adv-x="1269" d="M29 0l139 1434h326l141 -770l141 770h326l139 -1434h-315l-54 670l-122 -670h-230l-123 670l-53 -670h-315z" />
<glyph unicode="N" horiz-adv-x="1210" d="M129 0v1434h338l297 -754v754h317v-1434h-338l-297 768v-768h-317z" />
<glyph unicode="O" horiz-adv-x="1220" d="M66 717q0 117 18.5 224.5t60.5 206t103.5 170.5t154.5 114.5t207 42.5t207 -42.5t155 -114.5t104 -170.5t60.5 -206t18.5 -224.5t-18.5 -224.5t-60.5 -206t-104 -170.5t-155 -114.5t-207 -42.5t-207 42.5t-154.5 114.5t-103.5 170.5t-60.5 206t-18.5 224.5zM401 717 q0 -190 59.5 -302t149.5 -112t149.5 112t59.5 302t-59.5 301.5t-149.5 111.5t-149.5 -111.5t-59.5 -301.5z" />
<glyph unicode="P" horiz-adv-x="999" d="M129 0v1434h393q98 0 174 -31.5t121 -80.5t74.5 -115t40 -127.5t10.5 -125.5q0 -65 -11 -127t-40 -128t-74.5 -114.5t-121.5 -80t-173 -31.5h-67v-473h-326zM455 788h28q21 0 38 4.5t38.5 19.5t34 51t12.5 91q0 164 -123 164h-28v-330z" />
<glyph unicode="Q" horiz-adv-x="1208" d="M66 717q0 116 18.5 223t60.5 205.5t103.5 171t154.5 115.5t207 43q137 0 244 -64t171.5 -172.5t97 -241t32.5 -280.5q0 -311 -117 -496l127 -217l-207 -147l-94 172q-112 -70 -254 -70q-114 0 -207 43.5t-154.5 116t-103.5 171.5t-60.5 205.5t-18.5 221.5zM401 717 q0 -73 11.5 -143t35.5 -132.5t66 -100.5t96 -38q37 0 60 19l-115 190l201 135l55 -98q8 33 8 168q0 183 -57.5 298t-151.5 115q-95 0 -152 -115.5t-57 -297.5z" />
<glyph unicode="R" horiz-adv-x="980" d="M129 0v1434h385q26 0 51 -2t67.5 -12t77.5 -27.5t75 -52t67 -81.5t45 -121t18 -165q0 -31 -3 -63t-16 -83.5t-34.5 -94.5t-64 -85.5t-99.5 -66.5l283 -580h-377l-149 385v-385h-326zM455 788h16q41 0 67.5 20.5t36.5 53.5t12.5 52.5t2.5 39.5q0 19 -2.5 38.5t-12.5 52 t-36.5 53t-67.5 20.5h-16v-330z" />
<glyph unicode="S" horiz-adv-x="800" d="M14 1042q0 199 94 316t271 117q134 0 270 -62v-326q-136 72 -207 72q-49 0 -80.5 -34.5t-31.5 -88.5q0 -34 11.5 -59t34 -41t42.5 -25t52.5 -20.5t47.5 -18.5q60 -28 103.5 -71.5t66.5 -86.5t36 -99t16 -96t3 -89q0 -25 -2 -52.5t-10.5 -76t-23.5 -91.5t-44.5 -91 t-69.5 -81.5t-102 -56t-139 -22.5q-92 0 -160.5 25.5t-160.5 85.5v362q185 -129 286 -129q36 0 60.5 14.5t33.5 37.5t12 38.5t3 30.5q0 33 -3.5 52t-19 43.5t-50.5 46.5t-93 48q-40 18 -71 36.5t-65.5 53t-57 77.5t-37.5 110.5t-15 150.5z" />
<glyph unicode="T" horiz-adv-x="776" d="M14 1090v344h748v-344h-211v-1090h-326v1090h-211z" />
<glyph unicode="U" horiz-adv-x="1130" d="M115 580v854h325v-846q0 -36 0.5 -59t3 -56t7.5 -54.5t14 -45.5t22 -38t33 -23t45 -9t45 9t33 23t22 38t14 45.5t7.5 54.5t3 56t0.5 59v846h326v-854q0 -621 -451 -621q-450 0 -450 621z" />
<glyph unicode="V" horiz-adv-x="1032" d="M-14 1434h372l170 -852l168 852h351l-367 -1434h-313z" />
<glyph unicode="W" horiz-adv-x="1544" d="M-14 1434h350l139 -762l125 762h344l125 -762l139 762h351l-338 -1434h-320l-129 795l-129 -795h-319z" />
<glyph unicode="X" horiz-adv-x="1021" d="M-14 0l352 754l-318 680h375l117 -355l115 355h358l-301 -660l352 -774h-370l-156 446l-164 -446h-360z" />
<glyph unicode="Y" horiz-adv-x="958" d="M-14 1434h370l136 -459l133 459h348l-330 -873v-561h-328v561z" />
<glyph unicode="Z" horiz-adv-x="878" d="M-14 0l442 1090h-369v344h834l-432 -1090h397v-344h-872z" />
<glyph unicode="[" horiz-adv-x="536" d="M115 -430v1935h393v-172h-143v-1591h143v-172h-393z" />
<glyph unicode="\" horiz-adv-x="786" d="M43 1505h199l501 -1935h-198z" />
<glyph unicode="]" horiz-adv-x="536" d="M29 -258h143v1591h-143v172h393v-1935h-393v172z" />
<glyph unicode="^" horiz-adv-x="901" d="M82 1024l215 410h307l215 -410h-229l-139 254l-140 -254h-229z" />
<glyph unicode="_" horiz-adv-x="743" d="M0 -225h743v-205h-743v205z" />
<glyph unicode="`" horiz-adv-x="561" d="M-57 1434h354l149 -330h-229z" />
<glyph unicode="a" horiz-adv-x="989" d="M61 496q0 107 17 193.5t42 140.5t60.5 93.5t66 58.5t66.5 30t52.5 12.5t33.5 1.5q140 0 189 -111v74h286v-989h-286v70q-55 -107 -189 -107q-88 0 -155 45.5t-106 123t-58 169.5t-19 195zM367 496q0 -35 4 -69t14.5 -75.5t35 -67.5t60.5 -26t60.5 26.5t35.5 69t15 76.5 t4 66q0 235 -115 235q-36 0 -60.5 -26t-35 -67.5t-14.5 -75t-4 -66.5z" />
<glyph unicode="b" d="M115 0v1505h297v-575q35 96 180 96q63 0 115 -23t86.5 -58.5t60.5 -85.5t40 -98t22.5 -102t11 -91.5t2.5 -71.5q0 -45 -4 -91t-14 -99.5t-26 -101t-43 -92.5t-61 -77.5t-83 -52t-107 -19.5q-127 0 -180 88v-51h-297zM393 496q0 -34 4 -67.5t14.5 -76t35.5 -68.5t61 -26 q37 0 62.5 27t36 70t14.5 76t4 65q0 31 -4 63.5t-14.5 75t-36 69.5t-62.5 27q-36 0 -61 -26t-35.5 -68t-14.5 -75t-4 -66z" />
<glyph unicode="c" horiz-adv-x="698" d="M61 496q0 110 22.5 204.5t66.5 168t115.5 115.5t162.5 42q110 0 209 -35v-276q-64 24 -127 24q-45 0 -76 -28t-44 -72.5t-18 -78.5t-5 -66q0 -44 6.5 -83t22.5 -76t47.5 -59t76.5 -22q55 0 117 12v-270q-109 -33 -209 -33q-95 0 -168 44t-115 120.5t-63 169t-21 199.5z " />
<glyph unicode="d" d="M61 496q0 107 17 193.5t42 140.5t61 93.5t66.5 58.5t66.5 30t52.5 12.5t32.5 1.5q43 0 77.5 -9t54.5 -24.5t31 -28t18 -26.5v567h297v-1505h-289v49q-45 -48 -85 -67t-102 -19q-91 0 -159 45.5t-106 123t-56.5 169t-18.5 195.5zM367 496q0 -34 3.5 -67t14 -76t35.5 -69 t61 -26q37 0 62.5 27t36 70t14.5 76t4 65q0 31 -4 63.5t-14.5 75t-36 69.5t-62.5 27q-36 0 -61 -26t-35.5 -68t-14 -75t-3.5 -66z" />
<glyph unicode="e" horiz-adv-x="909" d="M61 496q0 88 14 166t45 145.5t76.5 115.5t111.5 75.5t147 27.5q69 0 126.5 -19t97 -51.5t71 -76t48.5 -92.5t30 -100.5t15.5 -101t4.5 -93.5q1 -14 1 -27q0 -27 -3 -49h-502q-1 -11 -1 -23q-1 -27 3 -53q4 -38 16 -76t36 -62t57 -24q47 0 71 36q23 33 23 79v8h285 q-5 -57 -26.5 -112t-63.5 -108t-116 -85.5t-171 -32.5q-21 0 -43 2t-63.5 13.5t-77.5 31.5t-76.5 60t-69 94.5t-47.5 140t-19 191.5zM350 610h211q1 28 -3 58t-13.5 64.5t-32.5 56.5t-55 22q-33 0 -56.5 -22t-33.5 -56t-14 -64.5t-3 -58.5z" />
<glyph unicode="f" horiz-adv-x="557" d="M14 731v258h86v195q0 344 285 344q53 0 150 -17v-247q-43 6 -64 6q-40 0 -57 -31t-17 -121v-129h146v-258h-146v-731h-297v731h-86z" />
<glyph unicode="g" horiz-adv-x="1001" d="M61 535q0 100 19.5 186t59 155.5t106 109.5t153.5 40q61 0 109.5 -19t89.5 -71v53h289v-960q0 -97 -18 -175.5t-44.5 -128.5t-66 -86.5t-74.5 -54.5t-77.5 -28.5t-66.5 -12.5t-51 -2q-96 0 -169.5 31t-113 73.5t-65 100t-33.5 96.5t-10 78h316q6 -121 75 -121 q109 0 109 230v59q-39 -88 -162 -88q-76 0 -137.5 26.5t-99.5 65t-66 95t-41.5 103.5t-21 104.5t-8.5 84.5t-1 56zM367 516q0 -33 3.5 -64t14 -72.5t36.5 -67t64 -25.5q32 0 56 18.5t36 44t19 60.5t8.5 58.5t1.5 47.5q0 122 -34.5 173.5t-86.5 51.5q-59 0 -88.5 -59 t-29.5 -166z" />
<glyph unicode="h" horiz-adv-x="962" d="M115 0v1505h297v-583q53 104 188 104q65 0 111 -20.5t81 -70t52.5 -138.5t17.5 -219v-578h-297v545v30.5t-1 30.5t-2.5 32t-4.5 28t-8 26.5t-12 19.5t-17 14.5t-22 4.5q-86 0 -86 -244v-487h-297z" />
<glyph unicode="i" horiz-adv-x="524" d="M109 1276q0 87 44 136.5t109 49.5t109.5 -49.5t44.5 -136.5t-44.5 -136.5t-109.5 -49.5t-109 49.5t-44 136.5zM113 0l2 989h297l-2 -989h-297z" />
<glyph unicode="j" horiz-adv-x="524" d="M109 1276q0 87 44 136.5t109 49.5t109.5 -49.5t44.5 -136.5t-44.5 -136.5t-109.5 -49.5t-109 49.5t-44 136.5zM115 -430v1419h297v-1419h-297z" />
<glyph unicode="k" horiz-adv-x="942" d="M115 0v1505h297v-846l172 330h346l-301 -465l336 -524h-363l-190 360v-360h-297z" />
<glyph unicode="l" horiz-adv-x="526" d="M115 0v1505h297v-1505h-297z" />
<glyph unicode="m" horiz-adv-x="1355" d="M115 0v989h297v-78q55 115 180 115q151 0 203 -113q40 69 89.5 91t114.5 22q35 0 65.5 -6.5t67 -29t62.5 -59.5t43.5 -104t17.5 -157v-670h-297v578q0 153 -55 153q-24 0 -39 -19.5t-21 -56t-7.5 -62t-1.5 -63.5v-530h-297v578q0 153 -54 153q-71 0 -71 -201v-530h-297z " />
<glyph unicode="n" horiz-adv-x="962" d="M115 0v989h297v-67q53 104 188 104q63 0 109 -20.5t81.5 -70t53.5 -138.5t18 -219v-578h-297v545v30.5t-1 30.5t-2.5 32t-4.5 28t-8 26.5t-12 19.5t-17 14.5t-22 4.5q-86 0 -86 -244v-487h-297z" />
<glyph unicode="o" horiz-adv-x="970" d="M61 496q0 86 14 161.5t46 144t80 117.5t120.5 78t163.5 29t163.5 -29t120.5 -78t80 -117.5t46 -144t14 -161.5q0 -252 -113 -397q-106 -137 -288 -137q-11 0 -23 1h2q-12 -1 -23 -1q-184 0 -290 138q-114 146 -113 396zM367 496q0 -275 118 -275q119 0 119 275 q0 272 -119 272q-118 0 -118 -272z" />
<glyph unicode="p" d="M115 -430v1419h288v-59q49 96 189 96q63 0 115 -23t86.5 -59t60.5 -86t40 -98t22.5 -102t11 -91t2.5 -71q0 -45 -4 -91t-14 -99.5t-26 -101t-43 -92.5t-61 -77.5t-83 -52t-107 -19.5q-127 0 -180 88v-481h-297zM393 496q0 -34 4 -67.5t14.5 -76t35.5 -68.5t61 -26 q37 0 62.5 27t36 70t14.5 76t4 65q0 31 -4 63.5t-14.5 75t-36 69.5t-62.5 27q-36 0 -61 -26t-35.5 -68t-14.5 -75t-4 -66z" />
<glyph unicode="q" d="M61 496q0 107 17 193.5t42 140.5t60.5 93.5t66 58.5t66.5 30t52.5 12.5t33.5 1.5q65 0 111 -21.5t78 -74.5v59h289v-1419h-297v475q-56 -82 -179 -82q-91 0 -159 45.5t-106 123t-56.5 169t-18.5 195.5zM367 496q0 -34 3.5 -67t14 -76t35.5 -69t61 -26q37 0 62.5 27t36 70 t14.5 76t4 65q0 31 -4 63.5t-14.5 75t-36 69.5t-62.5 27q-36 0 -61 -26t-35.5 -68t-14 -75t-3.5 -66z" />
<glyph unicode="r" horiz-adv-x="657" d="M115 0v989h288v-78q26 101 158 101q33 0 82 -11v-305q-43 9 -82 9q-149 0 -149 -283v-422h-297z" />
<glyph unicode="s" horiz-adv-x="743" d="M43 51l98 238q97 -68 162 -68q23 0 39 9t22 22t8.5 22.5t2.5 16.5q0 25 -7.5 41.5t-23.5 26.5t-30.5 15.5t-40.5 12.5t-42 14q-157 62 -157 277q0 48 7 92t27.5 92t52.5 83t87 58t127 23q132 0 280 -59l-71 -222q-99 46 -146 46q-32 0 -54 -20.5t-22 -63.5 q0 -51 22.5 -69.5t73.5 -27t77 -20.5q137 -64 137 -275q0 -69 -14.5 -125.5t-36.5 -92.5t-53.5 -62.5t-60 -39.5t-62.5 -21t-54 -9.5t-41 -1.5q-77 0 -148 18.5t-103.5 35.5t-55.5 34z" />
<glyph unicode="t" horiz-adv-x="546" d="M14 731v258h86v273h297v-273h135v-258h-135v-731h-297v731h-86z" />
<glyph unicode="u" horiz-adv-x="950" d="M100 457v532h297v-540q0 -104 16.5 -147.5t61.5 -43.5t61.5 43.5t16.5 147.5v540h297v-532q0 -48 -2 -87.5t-11 -93t-24 -94.5t-43.5 -84t-67 -71t-96.5 -46t-131 -18t-131 18t-96.5 46t-67 71t-43.5 84t-24 94.5t-11 93t-2 87.5z" />
<glyph unicode="v" horiz-adv-x="778" d="M-23 989h316l113 -461l96 461h299l-273 -989h-243z" />
<glyph unicode="w" horiz-adv-x="1118" d="M-23 989h291l97 -444l84 444h221l84 -444l96 444h291l-269 -989h-227l-86 428l-86 -428h-227z" />
<glyph unicode="x" horiz-adv-x="868" d="M-14 0l290 528l-243 461h346l80 -239l82 239h331l-249 -465l260 -524h-332l-109 303l-114 -303h-342z" />
<glyph unicode="y" horiz-adv-x="872" d="M-23 989h332l154 -485l129 485h303l-479 -1419h-314l201 573z" />
<glyph unicode="z" horiz-adv-x="768" d="M0 0l336 731h-301v258h719l-340 -731h313v-258h-727z" />
<glyph unicode="{" horiz-adv-x="856" d="M205 406v196q43 0 71.5 35.5t39.5 90.5t14.5 90t3.5 65q0 62 -3 125t-3 112q0 73 13.5 131.5t34.5 95t51 62t58.5 37.5t62 17t57 4.5t46.5 -3.5v-155q-35 -6 -59.5 -28.5t-35.5 -46t-17 -57t-6.5 -44.5t-0.5 -25q0 -31 3.5 -89t3.5 -71q4 -118 4 -178q0 -186 -154 -250 v-33q42 -21 71.5 -45t45.5 -46t24.5 -50.5t10.5 -50t2 -53.5q0 -61 -4 -183q-1 -14 -4 -72.5t-3 -90.5q0 -79 29.5 -133t89.5 -64v-156q-35 -7 -73 -2.5t-73.5 13.5t-67.5 36t-56.5 64t-38.5 97t-14 136q0 39 4 117q2 41 2 121q0 43 -5 85t-17.5 89.5t-40 77t-66.5 29.5z " />
<glyph unicode="|" horiz-adv-x="399" d="M102 -459v2157h195v-2157h-195z" />
<glyph unicode="}" horiz-adv-x="856" d="M205 -301v-156q35 -7 73 -2.5t73.5 13.5t67.5 36t56.5 64t38.5 97t14 136q0 39 -4 117q-2 41 -2 121q0 43 5 85t17.5 89.5t40 77t66.5 29.5v196q-43 0 -71.5 35.5t-39.5 90.5t-14.5 90t-3.5 65q0 62 3 125t3 112q0 73 -13.5 131.5t-34.5 95t-51 62t-58.5 37.5t-62 17 t-57 4.5t-46.5 -3.5v-155q35 -6 59.5 -28.5t35.5 -46t17 -57t6.5 -44.5t0.5 -25q0 -31 -3.5 -89t-3.5 -71q-4 -118 -4 -178q0 -186 154 -250v-33q-42 -21 -71.5 -45t-45.5 -46t-24.5 -50.5t-10.5 -50t-2 -53.5q0 -61 4 -183q1 -14 4 -72.5t3 -90.5q0 -79 -29.5 -133 t-89.5 -64z" />
<glyph unicode="~" horiz-adv-x="1228" d="M102 594v205q45 47 104.5 74.5t121.5 27.5q80 0 225 -55q44 -16 112 -41.5t99 -37t70 -21t67 -9.5q117 0 225 103v-205q-100 -103 -225 -103q-19 0 -38.5 2t-46 8.5t-42.5 11t-53.5 17.5t-53 19t-66 25t-69.5 26q-147 55 -204 55q-119 0 -226 -102z" />
<glyph unicode="&#xa9;" horiz-adv-x="1720" d="M102 717q0 153 60.5 293.5t162 242t242 162t293.5 60.5t293.5 -60.5t242 -162t162 -242t60.5 -293.5t-60.5 -293.5t-162 -242t-242 -162t-293.5 -60.5t-293.5 60.5t-242 162t-162 242t-60.5 293.5zM229 717q0 -128 50 -245t134.5 -201.5t201.5 -134.5t245 -50t245 50 t201.5 134.5t134.5 201.5t50 245t-50 245t-134.5 201.5t-201.5 134.5t-245 50t-245 -50t-201.5 -134.5t-134.5 -201.5t-50 -245zM434 717q0 119 54 222.5t158.5 169t236.5 65.5q149 0 274 -76v-240q-106 80 -205 80q-43 0 -82.5 -12t-74.5 -37t-55.5 -69.5t-20.5 -102.5 q0 -107 62 -165t171 -58q105 0 205 73v-237q-75 -39 -134 -55.5t-140 -16.5q-195 0 -322 131.5t-127 327.5z" />
<glyph unicode="&#xab;" horiz-adv-x="909" d="M57 516l248 502l166 -154l-170 -348l170 -348l-166 -154zM436 516l248 502l168 -154l-172 -348l172 -348l-168 -154z" />
<glyph unicode="&#xad;" horiz-adv-x="688" d="M82 401v316h524v-316h-524z" />
<glyph unicode="&#xae;" horiz-adv-x="1732" d="M109 717q0 153 60.5 293.5t162 242t241.5 162t293 60.5t293.5 -60.5t242 -162t162 -242t60.5 -293.5t-60.5 -293.5t-162 -242t-242 -162t-293.5 -60.5t-293 60.5t-241.5 162t-162 242t-60.5 293.5zM236 717q0 -171 84.5 -316.5t229.5 -230t316 -84.5q128 0 245 50 t201.5 134.5t134.5 201.5t50 245t-50 245t-134.5 201.5t-201.5 134.5t-245 50q-171 0 -316 -84.5t-229.5 -230t-84.5 -316.5zM512 293v846h397q141 0 218 -75.5t77 -191.5q0 -58 -16.5 -101.5t-44.5 -69t-56.5 -39.5t-60.5 -21l207 -348h-277l-176 334h-10v-334h-258z M770 795h104q25 0 44.5 18t19.5 55q0 14 -2.5 24.5t-10 22t-25.5 17.5t-46 6h-84v-143z" />
<glyph unicode="&#xbb;" horiz-adv-x="909" d="M57 168l170 348l-170 348l166 154l248 -502l-248 -502zM436 168l172 348l-172 348l166 154l250 -502l-250 -502z" />
<glyph unicode="&#x401;" horiz-adv-x="847" d="M129 0v1434h633v-344h-307v-201h278v-316h-278v-229h307v-344h-633zM135 1686q0 66 36.5 111.5t98.5 45.5t99 -45.5t37 -111.5q0 -65 -36.5 -111.5t-99.5 -46.5t-99 46.5t-36 111.5zM483 1686q0 66 36.5 111.5t98.5 45.5t99 -45.5t37 -111.5q0 -65 -36.5 -111.5 t-99.5 -46.5t-99 46.5t-36 111.5z" />
<glyph unicode="&#x402;" horiz-adv-x="1142" d="M14 1104v330h863v-330h-326v-299q38 49 94.5 73.5t118.5 24.5q46 0 87 -9.5t85.5 -39t76 -76.5t52 -129t20.5 -190q0 -465 -352 -465q-42 0 -94 10v262q20 -10 49 -10q24 0 39.5 13.5t22 38.5t8.5 45t2 48q0 158 -90 158q-84 0 -119 -98v-461h-326v1104h-211z" />
<glyph unicode="&#x403;" horiz-adv-x="790" d="M129 0v1434h633v-344h-307v-1090h-326zM229 1536l148 307h356l-274 -307h-230z" />
<glyph unicode="&#x404;" horiz-adv-x="937" d="M66 737q0 107 17.5 209t56.5 199t96.5 169.5t143.5 116.5t191 44q152 0 281 -58v-313q-105 55 -223 55q-45 0 -84 -18.5t-65.5 -48t-46 -68t-29.5 -76t-13 -74.5h307v-286h-315q1 -38 7.5 -77.5t23.5 -83t42.5 -77t66.5 -55t93 -21.5q117 0 236 60v-309 q-120 -66 -279 -66q-88 0 -163 30.5t-129.5 85.5t-96.5 128t-67.5 161t-38 181.5t-12.5 191.5z" />
<glyph unicode="&#x405;" horiz-adv-x="800" d="M14 1042q0 199 94 316t271 117q134 0 270 -62v-326q-136 72 -207 72q-49 0 -80.5 -34.5t-31.5 -88.5q0 -34 11.5 -59t34 -41t42.5 -25t52.5 -20.5t47.5 -18.5q60 -28 103.5 -71.5t66.5 -86.5t36 -99t16 -96t3 -89q0 -25 -2 -52.5t-10.5 -76t-23.5 -91.5t-44.5 -91 t-69.5 -81.5t-102 -56t-139 -22.5q-92 0 -160.5 25.5t-160.5 85.5v362q185 -129 286 -129q36 0 60.5 14.5t33.5 37.5t12 38.5t3 30.5q0 33 -3.5 52t-19 43.5t-50.5 46.5t-93 48q-40 18 -71 36.5t-65.5 53t-57 77.5t-37.5 110.5t-15 150.5z" />
<glyph unicode="&#x406;" horiz-adv-x="583" d="M129 0v1434h326v-1434h-326z" />
<glyph unicode="&#x407;" horiz-adv-x="616" d="M10 1686q0 67 37 112t96 45t96 -45t37 -112q0 -65 -36.5 -111.5t-96.5 -46.5t-96.5 46.5t-36.5 111.5zM145 0v1434h326v-1434h-326zM340 1686q0 67 37 112t96 45t96 -45t37 -112q0 -65 -36.5 -111.5t-96.5 -46.5t-96.5 46.5t-36.5 111.5z" />
<glyph unicode="&#x408;" horiz-adv-x="681" d="M0 20v326q79 -43 141 -43q55 0 78 31t23 121v979h325v-938q0 -82 -4.5 -144.5t-16.5 -127t-35 -110t-58.5 -82t-89 -55t-123.5 -18.5q-62 0 -129.5 14.5t-110.5 46.5z" />
<glyph unicode="&#x409;" horiz-adv-x="1554" d="M0 6v336q50 -12 82 -12q40 0 63 24.5t35.5 93.5t12.5 195v791h786v-560h72q88 0 159 -18t116.5 -45.5t79.5 -68.5t50.5 -78t26.5 -84.5t12 -77t2 -64.5q0 -81 -16 -147.5t-43 -112t-64.5 -80t-77 -54t-84.5 -31t-84 -14t-77 0.5h-398v1090h-135v-566q0 -43 -0.5 -71 t-4.5 -76t-10.5 -81.5t-19.5 -78t-32 -75t-47.5 -63t-65 -52.5t-87 -32.5t-110.5 -12.5q-71 0 -141 24zM979 287h65q26 0 45.5 5t39.5 19.5t31 46.5t11 80q0 90 -33.5 120t-93.5 30h-65v-301z" />
<glyph unicode="&#x40a;" horiz-adv-x="1626" d="M129 0v1434h326v-560h270v560h326v-560h71q88 0 159 -18t117 -45.5t79.5 -68.5t50.5 -78.5t27 -84.5t12 -76.5t2 -64.5q0 -93 -21 -168t-58 -121.5t-81.5 -79.5t-97 -47.5t-98.5 -19.5t-91 -2h-397v588h-270v-588h-326zM1051 287h65q26 0 44 4t39 18t32.5 46.5t11.5 82.5 q0 49 -11 81t-32 46t-39.5 18.5t-44.5 4.5h-65v-301z" />
<glyph unicode="&#x40b;" horiz-adv-x="1159" d="M14 1104v330h863v-330h-326v-295q38 47 100 78t127 31q69 0 120 -24.5t81 -63.5t48.5 -99t25 -120.5t6.5 -137.5v-473h-326v399q0 35 -2.5 60.5t-9.5 54t-24.5 44t-43.5 15.5q-31 0 -60 -34.5t-42 -77.5v-461h-326v1104h-211z" />
<glyph unicode="&#x40c;" horiz-adv-x="1052" d="M129 0v1434h326v-531l235 531h367l-365 -695l375 -739h-387l-225 537v-537h-326zM360 1536l148 307h356l-274 -307h-230z" />
<glyph unicode="&#x40e;" d="M0 1434h371l157 -547l129 547h349l-433 -1434h-344l131 395zM199 1806h219q4 -36 23.5 -68t54.5 -32t54 31.5t23 68.5h220q-15 -130 -97 -212.5t-200 -82.5t-200 82.5t-97 212.5z" />
<glyph unicode="&#x40f;" horiz-adv-x="1171" d="M129 0v1434h326v-1090h262v1090h325v-1434h-313v-328h-287v328h-313z" />
<glyph unicode="&#x410;" horiz-adv-x="1036" d="M-14 0l342 1434h381l342 -1434h-344l-54 248h-270l-53 -248h-344zM436 563h164l-82 393z" />
<glyph unicode="&#x411;" horiz-adv-x="1030" d="M129 0v1434h766v-344h-440v-216h71q44 0 82 -3.5t85 -14.5t85 -29.5t75.5 -51t63 -76.5t41 -109.5t15.5 -145.5q0 -72 -13 -133t-33 -104t-51.5 -77.5t-60 -55.5t-68.5 -36.5t-66.5 -22.5t-64 -10.5t-52 -4t-38.5 -0.5h-397zM455 287h67q18 0 29 1t31.5 8.5t32.5 22.5 t22 45.5t10 73.5q0 52 -13 85t-36 45.5t-39 16t-37 3.5h-67v-301z" />
<glyph unicode="&#x412;" horiz-adv-x="1048" d="M129 0v1434h453q83 0 147.5 -22t103 -57.5t63 -85t33.5 -97.5t9 -103q0 -59 -15 -107.5t-37 -78.5t-52.5 -54t-55 -35.5t-51.5 -19.5v-10q112 -31 188 -124t76 -241q0 -81 -22 -146.5t-54 -106.5t-78.5 -70.5t-84.5 -43.5t-83.5 -22t-64.5 -9t-37 -1h-438zM455 287h75 q17 0 26 0.5t33 8t38 21.5t26.5 45.5t12.5 75.5q0 41 -11 70t-24.5 43t-35.5 21.5t-34.5 8.5t-30.5 1h-75v-295zM455 868h63q14 0 28.5 3.5t37.5 15t37 41.5t14 76q0 63 -28.5 103t-88.5 40h-63v-279z" />
<glyph unicode="&#x413;" horiz-adv-x="790" d="M129 0v1434h633v-344h-307v-1090h-326z" />
<glyph unicode="&#x414;" horiz-adv-x="1087" d="M0 -287v629q47 -3 83.5 26.5t58 81t33.5 107t15 115.5q3 68 3 135v627h763v-1090h117v-631h-289v287h-495v-287h-289zM387 344h244v746h-135v-340q0 -66 -0.5 -95.5t-6 -84.5t-16 -87.5t-32.5 -71t-54 -67.5z" />
<glyph unicode="&#x415;" horiz-adv-x="847" d="M129 0v1434h633v-344h-307v-201h278v-316h-278v-229h307v-344h-633z" />
<glyph unicode="&#x416;" horiz-adv-x="1472" d="M-14 0l350 731l-322 703h359l200 -529v529h326v-529l201 529h358l-321 -703l350 -731h-383l-205 537v-537h-326v537l-204 -537h-383z" />
<glyph unicode="&#x417;" horiz-adv-x="888" d="M14 156l154 245q45 -51 99.5 -89t97.5 -38q68 0 99.5 50.5t31.5 107.5q0 150 -146 150h-162v286h162q23 0 43 5.5t42 20t35 46t13 76.5q0 143 -127 143q-80 0 -174 -47l-119 244q169 119 349 119q100 0 179 -36.5t125.5 -96.5t70.5 -130t24 -143q0 -126 -57 -203.5 t-142 -115.5v-15q31 -10 58.5 -25.5t58 -43t52 -63t36 -89t14.5 -117.5q0 -200 -117.5 -319t-295.5 -119q-115 0 -203.5 39.5t-200.5 157.5z" />
<glyph unicode="&#x418;" horiz-adv-x="1210" d="M129 0v1434h317v-775l316 775h319v-1434h-317v774l-318 -774h-317z" />
<glyph unicode="&#x419;" horiz-adv-x="1210" d="M129 0v1434h317v-775l316 775h319v-1434h-317v774l-318 -774h-317zM317 1806h220q4 -37 23 -68.5t54 -31.5t54.5 32t23.5 68h219q-15 -130 -97 -212.5t-200 -82.5t-200 82.5t-97 212.5z" />
<glyph unicode="&#x41a;" horiz-adv-x="1052" d="M129 0v1434h326v-531l235 531h367l-365 -695l375 -739h-387l-225 537v-537h-326z" />
<glyph unicode="&#x41b;" horiz-adv-x="1107" d="M0 6v336q50 -12 82 -12q40 0 63 24.5t35.5 93.5t12.5 195v791h786v-1434h-326v1090h-135v-566q0 -43 -0.5 -71t-4.5 -76t-10.5 -81.5t-19.5 -78t-32 -75t-47.5 -63t-65 -52.5t-87 -32.5t-110.5 -12.5q-71 0 -141 24z" />
<glyph unicode="&#x41c;" horiz-adv-x="1269" d="M29 0l139 1434h326l141 -770l141 770h326l139 -1434h-315l-54 670l-122 -670h-230l-123 670l-53 -670h-315z" />
<glyph unicode="&#x41d;" horiz-adv-x="1179" d="M129 0v1434h326v-516h270v516h326v-1434h-326v573h-270v-573h-326z" />
<glyph unicode="&#x41e;" horiz-adv-x="1220" d="M66 717q0 117 18.5 224.5t60.5 206t103.5 170.5t154.5 114.5t207 42.5t207 -42.5t155 -114.5t104 -170.5t60.5 -206t18.5 -224.5t-18.5 -224.5t-60.5 -206t-104 -170.5t-155 -114.5t-207 -42.5t-207 42.5t-154.5 114.5t-103.5 170.5t-60.5 206t-18.5 224.5zM401 717 q0 -190 59.5 -302t149.5 -112t149.5 112t59.5 302t-59.5 301.5t-149.5 111.5t-149.5 -111.5t-59.5 -301.5z" />
<glyph unicode="&#x41f;" horiz-adv-x="1171" d="M129 0v1434h913v-1434h-325v1090h-262v-1090h-326z" />
<glyph unicode="&#x420;" horiz-adv-x="999" d="M129 0v1434h393q98 0 174 -31.5t121 -80.5t74.5 -115t40 -127.5t10.5 -125.5q0 -65 -11 -127t-40 -128t-74.5 -114.5t-121.5 -80t-173 -31.5h-67v-473h-326zM455 788h28q21 0 38 4.5t38.5 19.5t34 51t12.5 91q0 164 -123 164h-28v-330z" />
<glyph unicode="&#x421;" horiz-adv-x="923" d="M66 717q0 175 40 319t109.5 239.5t164 147.5t202.5 52q163 0 270 -52v-370q-99 63 -215 63q-76 0 -131.5 -64t-80 -154.5t-24.5 -192.5q0 -70 14 -136.5t41.5 -124t74 -92.5t106.5 -35q117 0 215 33v-348q-100 -43 -266 -43q-91 0 -168.5 30.5t-133.5 84.5t-98.5 125.5 t-68.5 157.5t-38.5 175.5t-12.5 184.5z" />
<glyph unicode="&#x422;" horiz-adv-x="776" d="M14 1090v344h748v-344h-211v-1090h-326v1090h-211z" />
<glyph unicode="&#x423;" d="M0 1434h371l157 -547l129 547h349l-433 -1434h-344l131 395z" />
<glyph unicode="&#x424;" horiz-adv-x="1361" d="M66 774q0 98 16 180.5t42.5 140t64.5 102.5t77 72t85.5 45.5t85.5 26t81 9.5v155h326v-155q42 -2 81 -9.5t85.5 -26t85.5 -45.5t77 -72t64.5 -102.5t42.5 -140t16 -180.5q0 -99 -16 -181t-42.5 -139.5t-64.5 -102t-77 -71t-85.5 -44.5t-85.5 -25.5t-81 -9.5v-201h-326 v201q-42 2 -81 9.5t-85.5 25.5t-85.5 44.5t-77 71t-64.5 102t-42.5 139.5t-16 181zM391 774q0 -34 4.5 -70t18 -85t45.5 -85t78 -47v574q-46 -11 -78 -47t-45.5 -85t-18 -85t-4.5 -70zM825 487q46 11 78 47t45.5 85t18 85t4.5 70t-4.5 70t-18 85t-45.5 85t-78 47v-574z" />
<glyph unicode="&#x425;" horiz-adv-x="1021" d="M-14 0l352 754l-318 680h375l117 -355l115 355h358l-301 -660l352 -774h-370l-156 446l-164 -446h-360z" />
<glyph unicode="&#x426;" horiz-adv-x="1169" d="M129 0v1434h326v-1090h260v1090h325v-1090h115v-631h-287v287h-739z" />
<glyph unicode="&#x427;" horiz-adv-x="1058" d="M86 1018v416h326v-359v-44t1.5 -39.5t4.5 -37.5t8.5 -30.5t14 -27.5t20.5 -18.5t29.5 -13.5t39.5 -4q24 0 74 10v564h326v-1434h-326v553q-68 -14 -151 -14q-49 0 -84 3t-76 14.5t-69.5 31.5t-56 56t-44.5 86t-27 122.5t-10 165.5z" />
<glyph unicode="&#x428;" horiz-adv-x="1583" d="M129 0v1434h326v-1090h174v1090h325v-1090h174v1090h326v-1434h-1325z" />
<glyph unicode="&#x429;" horiz-adv-x="1583" d="M129 0v1434h326v-1090h174v1090h325v-1090h174v1090h326v-1090h115v-631h-287v287h-1153z" />
<glyph unicode="&#x42a;" horiz-adv-x="1107" d="M14 1090v344h518v-560h72q88 0 159 -18t117 -45.5t79.5 -68.5t50.5 -78.5t27 -84.5t12 -76.5t2 -64.5q0 -36 -2 -65.5t-12 -77t-27 -84.5t-50.5 -78.5t-79.5 -69t-117 -45.5t-159 -18h-397v1090h-193zM532 287h66q62 0 94.5 31t32.5 120q0 88 -32 119t-95 31h-66v-301z " />
<glyph unicode="&#x42b;" horiz-adv-x="1490" d="M129 0v1434h326v-560h71q88 0 159 -18t117 -45.5t79.5 -68.5t50.5 -78.5t27 -84.5t12 -76.5t2 -64.5q0 -36 -2 -65.5t-12 -77t-27 -84.5t-50.5 -78.5t-79.5 -69t-117 -45.5t-159 -18h-397zM455 287h65q62 0 94.5 31t32.5 120q0 88 -32 119t-95 31h-65v-301zM1036 0v1434 h326v-1434h-326z" />
<glyph unicode="&#x42c;" horiz-adv-x="1030" d="M129 0v1434h326v-560h71q88 0 159 -18t117 -45.5t79.5 -68.5t50.5 -78.5t27 -84.5t12 -76.5t2 -64.5q0 -36 -2 -65.5t-12 -77t-27 -84.5t-50.5 -78.5t-79.5 -69t-117 -45.5t-159 -18h-397zM455 287h65q62 0 94.5 31t32.5 120q0 88 -32 119t-95 31h-65v-301z" />
<glyph unicode="&#x42d;" horiz-adv-x="937" d="M86 4v299q126 -29 236 -29q15 0 34.5 3t56.5 21.5t65.5 49.5t51.5 96.5t25 153.5h-317v266h309q-3 33 -9 65t-23 76t-41 76t-67 55t-98 23q-109 0 -223 -24v292q120 48 279 48q108 0 195.5 -44t144.5 -116.5t95.5 -169.5t55 -199t16.5 -209q0 -88 -10 -173t-32 -175 t-61.5 -165.5t-93.5 -136t-133.5 -94.5t-176.5 -34q-167 0 -279 45z" />
<glyph unicode="&#x42e;" horiz-adv-x="1697" d="M129 0v1434h326v-549h98q5 43 13.5 87t28 104t45.5 113t68 107t93.5 92.5t125.5 62.5t160 24q114 0 207 -42.5t155 -114.5t104 -170.5t60.5 -206t18.5 -224.5q0 -118 -19 -226t-61.5 -206t-105 -169.5t-154.5 -114t-205 -42.5t-204.5 42.5t-148.5 106t-97.5 149.5 t-59 161t-26.5 151h-96v-569h-326zM877 717q0 -109 22 -200.5t71 -152.5t117 -61t117.5 61t71.5 152.5t22 200.5t-22 200t-71.5 152t-117.5 61q-52 0 -93 -35t-66 -93.5t-38 -131.5t-13 -153z" />
<glyph unicode="&#x42f;" horiz-adv-x="989" d="M29 0l262 543q-62 17 -108.5 62.5t-71.5 105.5t-36.5 121.5t-11.5 123.5q0 97 19.5 174.5t48.5 126.5t72 84.5t79 53t81 27t67.5 11t48.5 1.5h381v-1434h-325v446h-9l-157 -446h-340zM381 946q0 -55 11.5 -92t33 -53t40.5 -21.5t44 -5.5h25v344h-25q-129 0 -129 -172z " />
<glyph unicode="&#x430;" horiz-adv-x="989" d="M61 496q0 107 17 193.5t42 140.5t60.5 93.5t66 58.5t66.5 30t52.5 12.5t33.5 1.5q140 0 189 -111v74h286v-989h-286v70q-55 -107 -189 -107q-88 0 -155 45.5t-106 123t-58 169.5t-19 195zM367 496q0 -35 4 -69t14.5 -75.5t35 -67.5t60.5 -26t60.5 26.5t35.5 69t15 76.5 t4 66q0 235 -115 235q-36 0 -60.5 -26t-35 -67.5t-14.5 -75t-4 -66.5z" />
<glyph unicode="&#x431;" horiz-adv-x="966" d="M72 596q0 128 14 237t35.5 184.5t54 137.5t63.5 100t70 67.5t67.5 43.5t61.5 25q24 8 71.5 18.5t74.5 18t50 27.5t23 50h224q-3 -75 -21 -131.5t-41.5 -90t-62 -58t-71 -37t-79.5 -27.5q-5 -1 -8 -2q-62 -20 -100 -36t-79 -44t-64 -64t-41 -92t-25 -132h10 q66 176 250 176q79 0 142.5 -30.5t102.5 -79t65 -113t36 -126.5t10 -126q0 -66 -9 -131t-37 -139.5t-71 -129.5t-118.5 -92t-173.5 -37q-424 0 -424 633zM377 465q0 -133 32 -188.5t80 -55.5q54 0 81.5 67.5t27.5 176.5t-27.5 176.5t-81.5 67.5q-55 0 -83.5 -67.5 t-28.5 -176.5z" />
<glyph unicode="&#x432;" horiz-adv-x="882" d="M115 0v989h422q17 0 29 -0.5t41.5 -4.5t51 -12t49.5 -25t46 -40.5t30.5 -61.5t12.5 -85q0 -97 -44 -162.5t-122 -77.5v-10q34 -6 65.5 -21.5t62 -44.5t48.5 -78.5t18 -113.5q0 -51 -13.5 -92t-33 -66.5t-48 -44.5t-53 -28t-55 -14t-45.5 -6t-32 -1h-430zM403 215h56 q34 0 50.5 26.5t16.5 67.5q0 99 -67 99h-56v-193zM403 602h43q66 0 66 88q0 28 -7 46.5t-18.5 26t-19.5 9.5t-16 2h-48v-172z" />
<glyph unicode="&#x433;" horiz-adv-x="647" d="M115 0v989h518v-258h-221v-731h-297z" />
<glyph unicode="&#x434;" horiz-adv-x="960" d="M29 246q41 -2 71 26.5t51 114.5t21 227v375h664v-743h96v-533h-268v287h-367v-287h-268v533zM367 246h180v497h-101v-178q0 -105 -15.5 -178t-63.5 -141z" />
<glyph unicode="&#x435;" horiz-adv-x="909" d="M61 496q0 88 14 166t45 145.5t76.5 115.5t111.5 75.5t147 27.5q69 0 126.5 -19t97 -51.5t71 -76t48.5 -92.5t30 -100.5t15.5 -101t5 -93t-2.5 -76.5h-502q-2 -37 2.5 -75.5t16 -76.5t35.5 -62t57 -24q47 0 71.5 36t22.5 87h285q-5 -57 -26.5 -112t-63.5 -108t-116 -85.5 t-171 -32.5q-21 0 -43 2t-63.5 13.5t-77.5 31.5t-76.5 60t-69 94.5t-47.5 140t-19 191.5zM350 610h211q1 28 -3 58t-13.5 64.5t-32.5 56.5t-55 22q-33 0 -56.5 -22t-33.5 -56t-14 -64.5t-3 -58.5z" />
<glyph unicode="&#x436;" horiz-adv-x="1216" d="M-23 0l269 516l-230 473h330l119 -323v323h287v-323l118 323h330l-229 -473l268 -516h-350l-137 348v-348h-287v348l-137 -348h-351z" />
<glyph unicode="&#x437;" horiz-adv-x="794" d="M43 72l94 227q48 -32 108 -55t103 -23q10 0 19.5 2t26.5 9.5t27.5 29.5t10.5 55q0 95 -113 95h-92v194h107q17 0 27 1.5t28.5 9t28.5 28.5t10 55q0 45 -20 68t-52 23q-35 0 -92.5 -21t-101.5 -47l-82 207q177 96 317 96q37 0 73.5 -6.5t78.5 -25.5t73.5 -48.5t52.5 -81 t21 -116.5q0 -73 -35 -136t-104 -92v-10q57 -16 96.5 -47.5t56 -70t22 -67t5.5 -57.5q0 -38 -9.5 -77.5t-34.5 -81t-61.5 -73.5t-97 -52.5t-135.5 -20.5q-63 0 -130 17t-111 36.5t-115 55.5z" />
<glyph unicode="&#x438;" horiz-adv-x="997" d="M115 0v989h297v-450l186 450h285v-989h-297v459l-183 -459h-288z" />
<glyph unicode="&#x439;" horiz-adv-x="985" d="M109 0v989h297v-450l186 450h285v-989h-297v459l-183 -459h-288zM215 1382l217 2q2 -40 23 -71t57 -31t57 31t23 71l217 -2q-6 -111 -83.5 -186.5t-213.5 -75.5t-213.5 75.5t-83.5 186.5z" />
<glyph unicode="&#x43a;" horiz-adv-x="905" d="M115 0v989h297v-336l147 336h344l-274 -465l299 -524h-355l-161 369v-369h-297z" />
<glyph unicode="&#x43b;" horiz-adv-x="960" d="M29 6v248q16 -4 49 -4q44 0 65 38t21 136v565h682v-989h-299v743h-96v-413q0 -32 -1.5 -58t-7.5 -64.5t-16.5 -68t-30.5 -61.5t-47.5 -53t-70 -34.5t-95.5 -13.5q-56 0 -153 29z" />
<glyph unicode="&#x43c;" horiz-adv-x="1122" d="M29 0l106 989h316l110 -510l111 510h315l107 -989h-285l-49 465l-94 -465h-209l-95 465l-49 -465h-284z" />
<glyph unicode="&#x43d;" horiz-adv-x="987" d="M115 0v989h297v-348h163v348h297v-989h-297v395h-163v-395h-297z" />
<glyph unicode="&#x43e;" horiz-adv-x="970" d="M61 496q0 86 14 161.5t46 144t80 117.5t120.5 78t163.5 29t163.5 -29t120.5 -78t80 -117.5t46 -144t14 -161.5q0 -252 -113 -397t-311 -136h2q-199 -9 -312.5 136.5t-113.5 396.5zM367 496q0 -275 118 -275q119 0 119 275q0 272 -119 272q-118 0 -118 -272z" />
<glyph unicode="&#x43f;" horiz-adv-x="976" d="M115 0v989h747v-989h-297v743h-153v-743h-297z" />
<glyph unicode="&#x440;" d="M115 -430v1419h288v-59q49 96 189 96q63 0 115 -23t86.5 -59t60.5 -86t40 -98t22.5 -102t11 -91t2.5 -71q0 -45 -4 -91t-14 -99.5t-26 -101t-43 -92.5t-61 -77.5t-83 -52t-107 -19.5q-127 0 -180 88v-481h-297zM393 496q0 -34 4 -67.5t14.5 -76t35.5 -68.5t61 -26 q37 0 62.5 27t36 70t14.5 76t4 65q0 31 -4 63.5t-14.5 75t-36 69.5t-62.5 27q-36 0 -61 -26t-35.5 -68t-14.5 -75t-4 -66z" />
<glyph unicode="&#x441;" horiz-adv-x="698" d="M61 496q0 110 22.5 204.5t66.5 168t115.5 115.5t162.5 42q110 0 209 -35v-276q-64 24 -127 24q-45 0 -76 -28t-44 -72.5t-18 -78.5t-5 -66q0 -44 6.5 -83t22.5 -76t47.5 -59t76.5 -22q55 0 117 12v-270q-109 -33 -209 -33q-95 0 -168 44t-115 120.5t-63 169t-21 199.5z " />
<glyph unicode="&#x442;" horiz-adv-x="669" d="M14 731v258h641v-258h-172v-731h-297v731h-172z" />
<glyph unicode="&#x443;" horiz-adv-x="872" d="M-23 989h332l154 -485l129 485h303l-479 -1419h-314l201 573z" />
<glyph unicode="&#x444;" horiz-adv-x="1218" d="M61 496q0 90 15.5 164.5t40.5 125t60.5 90t70.5 62t76.5 38t73 21t63.5 7.5v430h297v-430q32 -2 63.5 -7.5t72.5 -21t76 -38t70.5 -62t60.5 -90t40.5 -125t15.5 -164.5q0 -124 -30 -219t-72.5 -147t-101 -86t-103.5 -44.5t-92 -13.5v-416h-297v416q-32 2 -63 7.5 t-72.5 21t-76.5 38t-71 62.5t-61 90.5t-40.5 125.5t-15.5 165zM348 487q0 -84 31.5 -164t95.5 -108v545q-64 -28 -95.5 -108.5t-31.5 -164.5zM743 215q64 28 95.5 108t31.5 164t-31.5 164.5t-95.5 108.5v-545z" />
<glyph unicode="&#x445;" horiz-adv-x="868" d="M-14 0l290 528l-243 461h346l80 -239l82 239h331l-249 -465l260 -524h-332l-109 303l-114 -303h-342z" />
<glyph unicode="&#x446;" horiz-adv-x="978" d="M115 0v989h297v-743h145v743h297v-743h96v-533h-268v287h-567z" />
<glyph unicode="&#x447;" horiz-adv-x="901" d="M86 596v393h289v-313q0 -80 13 -101.5t48 -21.5q29 0 53 8v428h297v-989h-297v322q-54 -15 -129 -15q-55 0 -98.5 11t-71.5 28t-48.5 43t-31 50t-16.5 56t-7 52.5t-1 48.5z" />
<glyph unicode="&#x448;" horiz-adv-x="1386" d="M115 0v989h297v-743h133v743h297v-743h133v743h297v-989h-1157z" />
<glyph unicode="&#x449;" horiz-adv-x="1396" d="M115 0v989h297v-743h133v743h297v-743h133v743h297v-743h96v-533h-270v287h-983z" />
<glyph unicode="&#x44a;" horiz-adv-x="911" d="M14 731v258h461v-330h76q75 0 133 -24.5t90.5 -60.5t52.5 -84t26.5 -87.5t6.5 -78.5q0 -61 -18.5 -117t-54.5 -103t-97 -75.5t-139 -28.5h-373v731h-164zM475 229h31q28 0 45.5 31t17.5 72q0 42 -18 70t-45 28h-31v-201z" />
<glyph unicode="&#x44b;" horiz-adv-x="1253" d="M115 0v989h297v-330h75q75 0 133 -24.5t90.5 -60.5t53 -84t27 -87.5t6.5 -78.5q0 -61 -18.5 -117t-54.5 -103t-97.5 -75.5t-139.5 -28.5h-372zM412 229h30q28 0 46 31.5t18 71.5q0 42 -18 70t-46 28h-30v-201zM842 0v989h297v-989h-297z" />
<glyph unicode="&#x44c;" horiz-adv-x="847" d="M115 0v989h297v-330h75q75 0 133 -24.5t90.5 -60.5t53 -84t27 -87.5t6.5 -78.5q0 -61 -18.5 -117t-54.5 -103t-97.5 -75.5t-139.5 -28.5h-372zM412 229h30q28 0 46 31.5t18 71.5q0 42 -18 70t-46 28h-30v-201z" />
<glyph unicode="&#x44d;" horiz-adv-x="749" d="M86 -20v237q73 -12 162 -12q47 0 82 19.5t53.5 51.5t27.5 64.5t9 65.5h-279v194h275q-2 28 -8.5 55t-23 62.5t-50.5 57.5t-82 22q-49 0 -162 -23v230q115 22 199 22q92 0 164.5 -35t115.5 -89t71 -126t38 -138.5t10 -135.5q0 -40 -3 -79t-13.5 -95.5t-27.5 -104.5 t-49 -98.5t-74.5 -85.5t-107 -57.5t-143.5 -22.5q-67 0 -184 21z" />
<glyph unicode="&#x44e;" horiz-adv-x="1363" d="M115 0v989h297v-364h51q6 49 18.5 96.5t43.5 105t74 99.5t116 71t164 29t163.5 -29t120.5 -78t80 -117.5t46 -144t14 -161.5q0 -34 -2 -67t-11.5 -89t-26 -103.5t-48.5 -100t-75.5 -89t-110.5 -60.5t-150 -24q-73 0 -134.5 18.5t-103 47.5t-74 70t-51 79.5t-32 83.5 t-18 74t-7.5 59h-47v-395h-297zM758 496q0 -275 121 -275q118 0 118 275q0 272 -118 272q-121 0 -121 -272z" />
<glyph unicode="&#x44f;" horiz-adv-x="868" d="M57 0l174 348q-172 56 -172 318q0 65 15 117.5t37.5 85.5t55.5 57t61.5 36t63.5 18.5t53 7.5t38 1h371v-989h-297v274l-8 -2l-91 -272h-301zM348 643q0 -63 23.5 -88t54.5 -25h31v230h-31q-78 0 -78 -117z" />
<glyph unicode="&#x451;" horiz-adv-x="909" d="M61 496q0 88 14 166t45 145.5t76.5 115.5t111.5 75.5t147 27.5q69 0 126.5 -19t97 -51.5t71 -76t48.5 -92.5t30 -100.5t15.5 -101t5 -93t-2.5 -76.5h-502q-2 -37 2.5 -75.5t16 -76.5t35.5 -62t57 -24q47 0 71.5 36t22.5 87h285q-5 -57 -26.5 -112t-63.5 -108t-116 -85.5 t-171 -32.5q-21 0 -43 2t-63.5 13.5t-77.5 31.5t-76.5 60t-69 94.5t-47.5 140t-19 191.5zM145 1262q0 66 37 111.5t99 45.5t98.5 -45.5t36.5 -111.5q0 -65 -36 -111.5t-99 -46.5t-99.5 46.5t-36.5 111.5zM350 610h211q1 28 -3 58t-13.5 64.5t-32.5 56.5t-55 22 q-33 0 -56.5 -22t-33.5 -56t-14 -64.5t-3 -58.5zM494 1262q0 66 36.5 111.5t98.5 45.5t98.5 -45.5t36.5 -111.5q0 -65 -36 -111.5t-99 -46.5t-99 46.5t-36 111.5z" />
<glyph unicode="&#x452;" horiz-adv-x="942" d="M-57 1161v201h114v143h297v-143h287v-201h-287v-221q55 86 189 86q152 0 235.5 -129t83.5 -365q0 -414 -270 -821l-215 150q94 159 141 312.5t47 336.5q0 258 -106 258q-35 0 -58 -25.5t-32.5 -72t-12 -82.5t-2.5 -86v-502h-297v1161h-114z" />
<glyph unicode="&#x453;" horiz-adv-x="647" d="M115 0v989h518v-258h-221v-731h-297zM158 1104l149 330h355l-275 -330h-229z" />
<glyph unicode="&#x454;" horiz-adv-x="759" d="M61 502q0 146 43 262.5t135.5 189t221.5 72.5q90 0 209 -39v-233q-105 43 -170 43q-54 0 -92 -32t-53.5 -71.5t-18.5 -83.5h272v-215h-278q4 -60 22.5 -101t46.5 -58.5t51 -24t48 -6.5q80 0 176 33v-246q-87 -33 -213 -33q-19 0 -39.5 2t-62.5 13.5t-78.5 31.5t-78.5 61 t-71.5 96t-49.5 143t-20 196z" />
<glyph unicode="&#x455;" horiz-adv-x="743" d="M43 51l98 238q97 -68 162 -68q23 0 39 9t22 22t8.5 22.5t2.5 16.5q0 25 -7.5 41.5t-23.5 26.5t-30.5 15.5t-40.5 12.5t-42 14q-157 62 -157 277q0 48 7 92t27.5 92t52.5 83t87 58t127 23q132 0 280 -59l-71 -222q-99 46 -146 46q-32 0 -54 -20.5t-22 -63.5 q0 -51 22.5 -69.5t73.5 -27t77 -20.5q137 -64 137 -275q0 -69 -14.5 -125.5t-36.5 -92.5t-53.5 -62.5t-60 -39.5t-62.5 -21t-54 -9.5t-41 -1.5q-77 0 -148 18.5t-103.5 35.5t-55.5 34z" />
<glyph unicode="&#x456;" horiz-adv-x="524" d="M109 1276q0 87 44 136.5t109 49.5t109.5 -49.5t44.5 -136.5t-44.5 -136.5t-109.5 -49.5t-109 49.5t-44 136.5zM113 0l2 989h297l-2 -989h-297z" />
<glyph unicode="&#x457;" horiz-adv-x="563" d="M10 1262q0 83 37 120t82 37t82 -37t37 -120q0 -81 -36 -119.5t-83 -38.5t-83 38.5t-36 119.5zM131 0v989h297v-989h-297zM315 1262q0 83 37 120t82 37t82 -37t37 -120q0 -81 -36 -119.5t-83 -38.5t-83 38.5t-36 119.5z" />
<glyph unicode="&#x458;" horiz-adv-x="524" d="M109 1276q0 87 44 136.5t109 49.5t109.5 -49.5t44.5 -136.5t-44.5 -136.5t-109.5 -49.5t-109 49.5t-44 136.5zM115 -430v1419h297v-1419h-297z" />
<glyph unicode="&#x459;" horiz-adv-x="1277" d="M29 6v248q16 -4 49 -4q44 0 65 38t21 136v565h680v-330h74q75 0 133 -24.5t90.5 -60.5t52.5 -84t26.5 -87.5t6.5 -78.5q0 -146 -85.5 -236t-223.5 -88h-371v743h-96v-413q0 -32 -1.5 -58t-7.5 -64.5t-16.5 -68t-30.5 -61.5t-47.5 -53t-70 -34.5t-95.5 -13.5 q-56 0 -153 29zM844 229h30q28 0 46 31.5t18 71.5q0 42 -18 70t-46 28h-30v-201z" />
<glyph unicode="&#x45a;" horiz-adv-x="1308" d="M115 0v989h297v-330h163v330h297v-330h76q75 0 133 -24.5t90.5 -60.5t52.5 -84t26.5 -87.5t6.5 -78.5q0 -146 -85.5 -236t-223.5 -88h-373v414h-163v-414h-297zM872 229h31q28 0 46 31.5t18 71.5q0 42 -18 70t-46 28h-31v-201z" />
<glyph unicode="&#x45b;" horiz-adv-x="905" d="M-57 1161v201h114v143h297v-143h287v-201h-287v-239q53 104 189 104q65 0 111 -20.5t81 -70t52.5 -138.5t17.5 -219v-578h-297v545q0 26 -0.5 41t-2 40.5t-6 40.5t-11.5 31.5t-19.5 24.5t-28.5 8q-27 0 -45 -21t-26 -61t-11 -75.5t-4 -86.5v-487h-297v1161h-114z" />
<glyph unicode="&#x45c;" horiz-adv-x="905" d="M115 0v989h297v-336l147 336h344l-274 -465l299 -524h-355l-161 369v-369h-297zM287 1104l149 330h355l-275 -330h-229z" />
<glyph unicode="&#x45e;" horiz-adv-x="872" d="M-23 989h332l154 -485l129 485h303l-479 -1419h-314l201 573zM139 1382l217 2q2 -40 23 -71t57 -31t57 31t23 71l217 -2q-6 -111 -83.5 -186.5t-213.5 -75.5t-213.5 75.5t-83.5 186.5z" />
<glyph unicode="&#x45f;" horiz-adv-x="976" d="M115 0v989h297v-743h153v743h297v-989h-239v-348h-269v348h-239z" />
<glyph unicode="&#x490;" horiz-adv-x="811" d="M129 0v1434h385v286h268v-630h-327v-1090h-326z" />
<glyph unicode="&#x491;" horiz-adv-x="647" d="M115 0v989h317v260h201v-518h-221v-731h-297z" />
<glyph unicode="&#x2000;" horiz-adv-x="921" />
<glyph unicode="&#x2001;" horiz-adv-x="1843" />
<glyph unicode="&#x2002;" horiz-adv-x="921" />
<glyph unicode="&#x2003;" horiz-adv-x="1843" />
<glyph unicode="&#x2004;" horiz-adv-x="614" />
<glyph unicode="&#x2005;" horiz-adv-x="460" />
<glyph unicode="&#x2006;" horiz-adv-x="307" />
<glyph unicode="&#x2007;" horiz-adv-x="307" />
<glyph unicode="&#x2008;" horiz-adv-x="230" />
<glyph unicode="&#x2009;" horiz-adv-x="368" />
<glyph unicode="&#x200a;" horiz-adv-x="102" />
<glyph unicode="&#x2010;" horiz-adv-x="688" d="M82 401v316h524v-316h-524z" />
<glyph unicode="&#x2011;" horiz-adv-x="688" d="M82 401v316h524v-316h-524z" />
<glyph unicode="&#x2012;" horiz-adv-x="688" d="M82 401v316h524v-316h-524z" />
<glyph unicode="&#x2013;" horiz-adv-x="1310" d="M102 614v205h1106v-205h-1106z" />
<glyph unicode="&#x2014;" horiz-adv-x="1230" d="M66 457v205h1099v-205h-1099z" />
<glyph unicode="&#x2018;" horiz-adv-x="555" d="M57 803l203 631h238l-144 -631h-297z" />
<glyph unicode="&#x2019;" horiz-adv-x="555" d="M57 803l144 631h297l-203 -631h-238z" />
<glyph unicode="&#x201a;" horiz-adv-x="526" d="M29 -287l143 631h297l-203 -631h-237z" />
<glyph unicode="&#x201c;" horiz-adv-x="952" d="M57 803l203 631h238l-144 -631h-297zM455 803l202 631h238l-143 -631h-297z" />
<glyph unicode="&#x201d;" horiz-adv-x="952" d="M57 803l144 631h297l-203 -631h-238zM457 803l143 631h295l-201 -631h-237z" />
<glyph unicode="&#x201e;" horiz-adv-x="954" d="M57 -287l144 631h297l-203 -631h-238zM457 -287l143 631h297l-203 -631h-237z" />
<glyph unicode="&#x2022;" horiz-adv-x="942" d="M102 717q0 154 107.5 261t261.5 107t261.5 -107t107.5 -261t-107.5 -261.5t-261.5 -107.5t-261.5 107.5t-107.5 261.5z" />
<glyph unicode="&#x2026;" horiz-adv-x="1581" d="M129 172q0 97 50 153t118 56t118 -56t50 -153t-50 -153t-118 -56t-118 56t-50 153zM623 172q0 97 50 153t118 56t117.5 -56t49.5 -153t-49.5 -153t-117.5 -56t-118 56t-50 153zM1116 172q0 97 50 153t118 56t118 -56t50 -153t-50 -153t-118 -56t-118 56t-50 153z" />
<glyph unicode="&#x202f;" horiz-adv-x="368" />
<glyph unicode="&#x2039;" horiz-adv-x="528" d="M57 516l248 502l166 -154l-170 -348l170 -348l-166 -154z" />
<glyph unicode="&#x203a;" horiz-adv-x="528" d="M57 168l170 348l-170 348l166 154l248 -502l-248 -502z" />
<glyph unicode="&#x205f;" horiz-adv-x="460" />
<glyph unicode="&#x20ac;" horiz-adv-x="917" d="M29 463l53 190h68q-3 27 -3 64q0 28 3 55h-121l53 191h80q63 512 438 512q84 0 148 -18.5t94 -41.5v-274q-55 69 -180 69q-89 0 -137 -59.5t-60 -187.5h328l-54 -191h-290v-55v-64h256l-54 -190h-184q12 -124 60.5 -182t136.5 -58q118 0 178 64v-273q-76 -53 -242 -53 q-187 0 -295.5 123t-138.5 379h-137z" />
<glyph unicode="&#x2122;" horiz-adv-x="1273" d="M102 1249v185h414v-185h-96v-389h-221v389h-97zM535 860l59 574h211l47 -236l49 236h209l61 -574h-198l-12 201l-43 -201h-132l-43 201l-12 -201h-196z" />
<glyph unicode="&#x25fc;" horiz-adv-x="993" d="M0 0v993h993v-993h-993z" />
</font>
</defs>
</svg>
